<svg enable-background="new 0 0 100 100" height="512" viewBox="0 0 100 100" width="512" xmlns="http://www.w3.org/2000/svg"><path d="m92.1637497 57.8642578-11.5184479-4.5287285-2.7611618-1.4096489.0012589-.0057259-.0061646.0032158-.0007095-.0003815-.0001602.0008202-.0060577.0031624v-2.5711212h-.0001069c1.5918808-1.3410873 2.6112137-3.3691101 2.6112137-5.6286201v-.5963364c.7887115 0 1.4281387-1.2887802 1.4281387-2.8785896 0-.1326523-.0107498-.2593613-.0193634-.3872681l.0056152-.0136909c2.3981094-11.0361671-4.5065231-10.4887028-4.5065231-10.4887028s-7.5470123-4.8823414-11.7084885 1.6031742c-2.4677048 3.845829-1.8345528 7.2470665-.9110031 9.217926-.0002747.0233421-.0034409.0450516-.0034409.0685616 0 1.5898094.6393738 2.8785896 1.4281464 2.8785896v.5963364c0 2.25951 1.0192719 4.2875328 2.6111526 5.6286201h-.0000534v2.5760841l-.0155411-.0081253-.0001678-.0008202-.0007095.0003815-.0061569-.0032158.0012512.0057259-2.7611008 1.4096489-11.5185089 4.5287285s-3.0433693 8.1255646-2.8250275 14.3434296c0 0 2.5191956 1.5436096 7.1499786 2.7668228.3640289.101944.7280617.2038879 1.1212158.2912674 3.4803276.8300095 7.9799805 1.4270554 13.3824081 1.1794739 5.4024734.2475815 9.9020767-.3494644 13.3824005-1.1794739.393158-.0873795.7572479-.1893234 1.1212769-.2912674 4.6306686-1.2232132 7.1498642-2.7668228 7.1498642-2.7668228.2184526-6.217865-2.8250273-14.3434296-2.8250273-14.3434296z" fill="#b0b1b5"/><path d="m33.9748802 53.3355293-2.7612095-1.4097023.0012531-.0056725-.0061073.0031624-.0007095-.0003281-.000164.0008202-.0061092.0031624v-2.5711212h-.0000534c1.5918827-1.3410873 2.6112118-3.3691101 2.6112118-5.6286201v-.5963364c.7887154 0 1.4281425-1.2887802 1.4281425-2.8785896 0-.1326523-.010746-.2593613-.0193634-.3872681l.0056152-.0136909c2.3981094-11.0361671-4.5065269-10.4887028-4.5065269-10.4887028s-7.5470066-4.8823414-11.7084846 1.6031742c-2.4677067 3.845829-1.8345528 7.2470665-.911005 9.217926-.0002728.0233421-.0034351.0450516-.0034351.0685616 0 1.5898094.6393719 2.8785896 1.4281406 2.8785896v.5963364c0 2.25951 1.0192738 4.2875328 2.6111584 5.6286201h-.0000553v2.5760841l-.0155449-.0081253-.000164-.0008202-.0007097.0003816-.0061626-.0032158.001255.0057259-2.7611027 1.4096489-11.5185061 4.5287284s-3.0434241 8.1255646-2.8250275 14.3434296c0 0 2.519196 1.5436096 7.1499224 2.7668228.3640842.101944.7281151.2038879 1.1212177.2912674 3.4803257.8300095 7.9799824 1.4270554 13.3824043 1.1794739 5.4025307.2475815 9.9020767-.3494644 13.3824043-1.1794739.3932114-.0873795.7572441-.1893234 1.1213264-.2912674 4.6306725-1.2232132 7.149868-2.7668228 7.149868-2.7668228.2184525-6.217865-2.8250275-14.3434296-2.8250275-14.3434296z" fill="#b0b1b5"/><path d="m42.4340782 52.4858208c.5876846 3.6547813 3.7544975 6.4586563 7.572422 6.4586563 3.8179703 0 6.9848289-2.803875 7.5724678-6.458744-1.3478966-.9379921-1.2871857-2.2279358-1.2871857-2.2279358v-3.9949455h-12.5704726v3.9949455c0-.0000001.0607566 1.2899894-1.2872315 2.2280235z" fill="#d6b24e"/><path d="m59.912735 29.6465359c-.0021324 0-.0042152.0006409-.0063477.0006409-.133709-5.4484806-4.5348892-9.8640137-9.8998146-9.8640137h-.0000534c-5.3649292 0-9.7661095 4.4155331-9.8998146 9.8640137-.0021362 0-.0042152-.0006409-.0063477-.0006409-1.0938263 0-1.9804764 1.7872791-1.9804764 3.9919491 0 2.2046738.8866501 3.9919243 1.9804764 3.9919243v.8269463c0 5.565033 4.4577866 10.1182747 9.9061623 10.1182747h.0000534c5.4483719 0 9.9061623-4.5532417 9.9061623-10.1182747v-.8269463c1.0937729 0 1.9804764-1.7872505 1.9804764-3.9919243 0-2.20467-.8867035-3.9919491-1.9804764-3.9919491z" fill="#ffd25a"/><path d="m55.6247368 18.5372429s-10.4658279-6.7705612-16.236721 2.223177c-4.4811592 6.9838009-1.5908699 12.9221554-.0748405 14.7144146l1.6306419.7264366v-5.6840801c.770977-2.0552578 2.2132797-3.6407566 4.8997803-1.773571 2.1134071 1.4688911 3.8796539 1.2986622 5.2452507.5505009 2.9589577-1.6210098 6.4779129-.812479 8.3340454 1.6113758v5.2957745h1.1687737l1.282486-3.118824c3.3255995-15.3043958-6.2494165-14.5452043-6.2494165-14.5452043z" fill="#293b44"/><path d="m52.491909 53.5267906 5.3945389 2.6520767-5.6040192 16.4308892-1.6482391-3.7726364-.1465111-13.2591858z" fill="#e6e7e8"/><path d="m80.0280533 77.9526443s-3.4934769 2.1405258-9.9150696 3.836853c-.5048447.1413727-1.0096893.2827454-1.5549622.4039001-4.8263283 1.151062-11.066124 1.9789505-18.5580444 1.6356888l4.6445351-15.9935226 3.0290604-13.3076057 2.4636993-2.746315 15.9731865 6.28022s4.2205505 11.2681389 3.9175949 19.8907814z" fill="#344e5c"/><path d="m56.3099327 49.8189087-6.3099556 3.2859993 4.9219704 3.0739593z" fill="#dad7dc"/><path d="m47.508049 53.5267906-5.3945427 2.6520767 5.6040192 16.4308892 1.6482429-3.7726364.1465073-13.2591858z" fill="#e6e7e8"/><path d="m49.9999771 83.8290863c-7.4917946.3432617-13.7317123-.4846268-18.5580444-1.6356888-.5451469-.1211548-1.0499916-.2625275-1.5548344-.4039001-6.4217167-1.6963272-9.9151917-3.836853-9.9151917-3.836853-.3028336-8.6226425 3.9175892-19.8907814 3.9175892-19.8907814l15.9733124-6.28022 2.4635773 2.746315 3.0290604 13.3076057z" fill="#344e5c"/><path d="m43.6900253 49.8189087 6.3099518 3.2859993-4.9219665 3.0739593z" fill="#dad7dc"/><path d="m52.4838905 74.0552673-2.4839134 4.6849594-2.4837875-4.6849594 1.3529434-17.2454071-1.1712685-2.2616882 2.3021126-1.4337997 2.3021164 1.4337997-1.1712723 2.2616882z" fill="#f37735"/><g fill="#293b44"><path d="m58.2794838 60.7072372 2.8270493 1.6558991-11.106556 21.46595-11.1065521-21.46595 2.8271713-1.6558991-3.2310715-1.7770576 1.3732834-7.1485367 3.8367348-1.9588585 6.3004341 28.9174423 6.3004379-28.9174423 3.8368569 1.9588585 1.3731575 7.1485367z"/><path d="m32.9766769 67.3106308-1.5347443 14.8827667c-.5451469-.1211548-1.0499916-.2625275-1.5548344-.4039001z"/><path d="m70.1129837 81.7894974c-.5048447.1413727-1.0096893.2827454-1.5549622.4039001l-1.5347443-14.8827667z"/></g></svg>